<?xml version="1.0" encoding="UTF-8" standalone="no"?>
<!-- Created with Inkscape (http://www.inkscape.org/) -->

<svg
   xmlns:dc="http://purl.org/dc/elements/1.1/"
   xmlns:cc="http://creativecommons.org/ns#"
   xmlns:rdf="http://www.w3.org/1999/02/22-rdf-syntax-ns#"
   xmlns:svg="http://www.w3.org/2000/svg"
   xmlns="http://www.w3.org/2000/svg"
   xmlns:sodipodi="http://sodipodi.sourceforge.net/DTD/sodipodi-0.dtd"
   xmlns:inkscape="http://www.inkscape.org/namespaces/inkscape"
   version="1.1"
   width="1670"
   height="747"
   id="svg3039"
   inkscape:version="0.48.2 r9819"
   sodipodi:docname="Me3D Logo vector.svg">
  <sodipodi:namedview
     pagecolor="#ffffff"
     bordercolor="#666666"
     borderopacity="1"
     objecttolerance="10"
     gridtolerance="10"
     guidetolerance="10"
     inkscape:pageopacity="0"
     inkscape:pageshadow="2"
     inkscape:window-width="1600"
     inkscape:window-height="1105"
     id="namedview7"
     showgrid="false"
     fit-margin-top="0"
     fit-margin-left="0"
     fit-margin-right="0"
     fit-margin-bottom="0"
     inkscape:zoom="0.29426434"
     inkscape:cx="743.85191"
     inkscape:cy="324.91039"
     inkscape:window-x="49"
     inkscape:window-y="0"
     inkscape:window-maximized="0"
     inkscape:current-layer="svg3039" />
  <metadata
     id="metadata3045">
    <rdf:RDF>
      <cc:Work
         rdf:about="">
        <dc:format>image/svg+xml</dc:format>
        <dc:type
           rdf:resource="http://purl.org/dc/dcmitype/StillImage" />
        <dc:title />
      </cc:Work>
    </rdf:RDF>
  </metadata>
  <defs
     id="defs3043" />
  <g
     id="g2984">
    <path
       inkscape:connector-curvature="0"
       style="fill:#fd0404"
       id="path3053"
       d="m 700.57384,695.56707 -4,-1.4329 -3.17692,-3.4473 -3.17693,-3.4474 -1.0675,-3.8444 -1.0675,-3.8444 -0.006,-6.2008 -0.006,-6.2008 1.06176,-4.9508 1.06177,-4.9508 2.80336,-4.4205 2.80337,-4.4204 3.88487,-1.928 3.88487,-1.9279 156.5,-0.5414 156.50001,-0.5415 10,-1.7049 c 17.3067,-2.9507 29.479,-7.4141 37.551,-13.7693 l 3.5511,-2.7958 2.9489,-5.3236 2.949,-5.3235 0.3203,-21.789 0.3203,-21.789 -2.2006,-4.5458 -2.2005,-4.5458 -4.6198,-3.3637 -4.6197,-3.36373 -5.3345,-2.04977 c -2.934,-1.12737 -9.684,-2.92907 -15,-4.00378 l -9.6655,-1.95401 -12,-1.03739 -12,-1.03739 -150.10079,-0.0103 -150.09992,-0.0103 -3.39923,-1.15295 c -1.86957,-0.63413 -4.60894,-1.99498 -6.08748,-3.02413 l -2.68825,-1.87118 -2.68838,-5.49484 -2.68837,-5.49483 -0.48884,-8.73104 -0.48883,-8.73103 1.21156,-4.46375 1.21157,-4.46374 3.67645,-3.67645 3.67644,-3.67645 3.97746,-1.10423 3.97745,-1.10423 150.5,-0.009 150.49996,-0.009 11.5,-1.05256 c 13.7637,-1.25974 27.3903,-3.9287 35.2392,-6.90207 l 5.7392,-2.17416 4.7596,-3.28001 4.7596,-3.28 2.8176,-5.39347 2.8176,-5.39348 -0.3164,-22.08499 -0.3164,-22.08499 -2.7996,-4.22718 -2.7995,-4.22717 -4.6516,-2.94997 c -6.3362,-4.01824 -13.6885,-6.64023 -24.0439,-8.57452 l -8.7054,-1.62608 -53.99996,-0.62126 -54,-0.62126 -4.6758,-2.74867 -4.6758,-2.74867 -2.65488,-5.42638 -2.65489,-5.42639 -0.0288,-9.09108 -0.0288,-9.09108 2.68365,-5.48519 2.68366,-5.4852 4.6758,-2.74296 4.6758,-2.74295 32,-0.81975 32,-0.81974 18.49992,0.56068 18.5,0.56069 12.9361,1.51584 c 26.025,3.04961 45.8835,8.10926 60.32,15.3687 l 7.7439,3.89405 6.341,4.76724 6.3411,4.76725 5.0756,6.09681 5.0757,6.0968 3.3017,7 c 1.8159,3.85 4.0408,9.7 4.9442,13 l 1.6425,6 0.5075,17.50882 0.5074,17.50882 -1.1348,13.62621 -1.1349,13.62622 -2.0729,6.36496 c -1.1402,3.50074 -3.4631,8.83997 -5.1621,11.86497 l -3.0891,5.5 -8.3274,8.3845 -8.3274,8.3845 7.3557,7.23729 7.3556,7.23728 3.6936,6.08022 3.6935,6.08023 2.4861,7.29799 2.4861,7.29801 1.0895,12.973 1.0894,12.973 -0.5019,17.527 -0.5019,17.527 -2.0889,7.8005 -2.0889,7.8005 -3.5876,6.8271 -3.5876,6.8272 -5.336,6.4692 -5.336,6.4691 -7.876,5.9347 -7.8759,5.9347 -8.4785,4.1474 c -15.1383,7.4052 -35.8593,13.1643 -60.9784,16.9481 l -11.5,1.7323 -156.99992,0.2792 -157,0.2793 -4,-1.4329 z m 494.13726,0.036 -3.8628,-1.3946 -2.9107,-2.7887 -2.9108,-2.7887 -1.4765,-4.9719 -1.4765,-4.9719 0.01,-157.5685 0.01,-157.5685 1.1042,-3.97745 1.1042,-3.97746 3.6628,-3.66274 3.6627,-3.66274 3.9774,-1.10423 3.9775,-1.10423 146.6048,-0.006 146.6048,-0.006 12.8952,1.01727 c 7.0924,0.55949 18.4935,1.94893 25.3358,3.08764 l 12.4406,2.07038 8.5594,2.47976 c 24.4348,7.07906 40.3696,16.71601 52.4659,31.73011 l 4.9265,6.11484 3.2158,7 c 1.7687,3.85 4.0563,10.15 5.0835,14 l 1.8677,7 0,98 0,98.00005 -1.8158,6.5 -1.8158,6.5 -3.8616,8 -3.8615,8 -5.5262,6.6669 -5.5262,6.667 -6.1145,4.9475 c -3.3631,2.7212 -9.9816,7.2528 -14.708,10.0703 l -8.5933,5.1229 -10.5886,4.1423 -10.5885,4.1423 -11.1466,2.8173 c -6.1307,1.5496 -16.0307,3.6051 -22,4.568 l -10.8534,1.7507 -152,0.2761 -152,0.2761 -3.8627,-1.3946 z m 310.1058,-53.8742 c 4.5338,-0.925 12.4124,-3.0174 17.5082,-4.6497 l 9.265,-2.9679 5.9918,-3.5951 c 3.2956,-1.9773 7.4736,-5.0229 9.2846,-6.768 l 3.2926,-3.1729 2.7074,-5.5125 2.7073,-5.5125 0,-90 0,-90 -2.1776,-4.06821 -2.1776,-4.06822 -4.2276,-3.81937 -4.2275,-3.81936 -8.0949,-3.76222 -8.0948,-3.76221 -8.5,-2.07686 c -4.675,-1.14227 -11.875,-2.64986 -16,-3.3502 l -7.5,-1.27335 -124,0 -124,0 -0.2573,121 c -0.1415,66.55 -0.037,121.579 0.2327,122.2867 l 0.49,1.2868 124.7673,-0.3565 124.7673,-0.3566 z" />
    <path
       inkscape:connector-curvature="0"
       style="fill:#4b4b4b;stroke:none"
       id="path3051"
       d="m 335.57384,401.02866 c -2.2,-0.44159 -6.475,-1.74874 -9.5,-2.9048 l -5.5,-2.10191 -4.78045,-3.51746 -4.78045,-3.51745 -12.71955,-15.38711 c -6.99575,-8.46292 -50.74455,-61.7517 -97.21955,-118.41953 l -84.5,-103.0324 -1.25,-0.0487 -1.25,-0.0486 0,114.8185 0,114.8185 -1.47649,4.97189 -1.47649,4.97188 -2.78768,2.67077 -2.78768,2.67077 -4.36156,1.53884 -4.361554,1.53885 -13.325052,0 -13.325053,0 -5.154708,-1.10549 -5.154708,-1.10551 -3.714016,-3.71402 -3.714016,-3.71402 -1.217416,-4.43049 L 50,381.55067 l 0.3001,-154.5 0.300101,-154.5 1.460207,-4 1.460206,-4 5.035102,-5.07371 5.035102,-5.0737 4.991511,-1.73794 4.99151,-1.73794 9,-0.56545 9,-0.565445 6.23465,1.602475 6.234651,1.60246 5.05126,2.55967 5.05125,2.55966 4.02958,3.64049 4.02959,3.64048 112.6197,133.34608 112.61969,133.34608 1.06482,-0.32998 c 0.58564,-0.18149 50.11481,-59.79459 110.06481,-132.47356 59.95,-72.67897 110.35,-133.57632 112,-135.32743 1.65,-1.75111 5.62147,-4.89959 8.82548,-6.99662 l 5.82549,-3.81279 7.58882,-1.68835 7.58883,-1.688355 8.08569,0.590435 8.08569,0.59044 4.69453,1.6216 4.69453,1.6216 4.59728,4.04669 4.59727,4.04668 1.83499,3.62822 c 1.00924,1.99551 2.34043,6.01286 2.95819,8.92743 l 1.12321,5.29922 0,151.08476 0,151.08476 -1.226,4.09202 -1.226,4.09202 -3.66851,3.66851 -3.66852,3.66852 -5.1547,1.10548 -5.15471,1.10549 -13.20078,-0.006 -13.20078,-0.006 -3.77733,-1.04898 -3.77734,-1.04897 -3.46187,-3.03957 -3.46188,-3.03957 -1.51079,-5.08738 -1.51079,-5.08653 0,-114.40183 0,-114.40184 -1.25,0.39695 -1.25,0.39695 -93,114.66918 c -51.15,63.06805 -95.20872,116.90219 -97.90826,119.63141 l -4.90826,4.96224 -5.68481,3.02997 -5.68481,3.02997 -6.40693,1.51022 -6.40693,1.51022 -7.5,-0.0948 c -4.125,-0.0521 -9.3,-0.45608 -11.5,-0.89766 z m 461,-2.02642 c -16.57119,-0.95303 -32.97539,-3.37504 -47.25108,-6.97639 l -11.25107,-2.83833 -8.06747,-3.48791 c -4.4371,-1.91834 -10.62412,-4.98663 -13.74892,-6.81842 l -5.68146,-3.33052 -10.5,-10.5 -10.5,-10.5 -3.77559,-6.5 -3.77559,-6.5 -2.72441,-8 -2.72441,-8 0,-64.5 0,-64.5 2.72441,-8 2.72441,-8 3.77559,-6.3665 3.77559,-6.3665 6.24386,-6.40193 6.24386,-6.40193 8.51457,-5.55007 8.51457,-5.55008 8.24157,-3.80596 c 15.86193,-7.32506 34.83411,-12.32853 57.74157,-15.22801 l 10.5,-1.32902 82.5,0 82.5,0 13,2.34104 13,2.34103 9.5,3.03142 9.49996,3.03142 9,4.28613 c 4.95,2.35737 11.7601,6.12952 15.1336,8.38255 l 6.1336,4.09643 6.7336,7.13796 6.7336,7.13795 3.3918,7.14222 3.3918,7.14221 1.5319,7.347 1.5319,7.34699 -0.2909,41.61782 -0.2909,41.61783 -2.5,4.94803 -2.5,4.94802 -2.8232,2.05198 -2.8231,2.05197 -154.17683,0.5 -154.17683,0.5 -0.31102,2.69405 -0.31103,2.69406 1.06645,5.76896 1.06645,5.76897 2.88278,6.16036 2.88278,6.16036 3.69418,4.089 3.69417,4.08901 6.16762,3.88087 c 3.39219,2.13447 9.09262,5.04264 12.66762,6.4626 l 6.5,2.58174 8,1.56284 c 4.4,0.85956 12.725,2.03297 18.5,2.60756 l 10.5,1.04472 25.5,0.55643 25.5,0.55643 3.5,1.04982 c 1.925,0.57741 4.79525,1.95913 6.37833,3.0705 l 2.87834,2.02067 2.34423,5.12048 2.34423,5.12048 0.65879,7.08827 0.65878,7.08827 -1.26257,5.263 -1.26257,5.26299 -3.71011,3.71011 -3.71011,3.71011 -4.60149,1.15867 -4.60149,1.15867 -28.80718,-0.15039 c -15.84395,-0.0827 -34.65718,-0.48683 -41.80718,-0.89804 z m 203.3031,-177.45157 0.30306,-17 -1.07746,-3.69748 -1.0775,-3.69749 -3.10188,-3.10186 -3.10186,-3.10186 -5.62373,-2.83586 c -3.09305,-1.55973 -8.58753,-3.75012 -12.20996,-4.86754 l -6.58623,-2.03168 -12.41377,-2.05527 c -6.82757,-1.13041 -18.26377,-2.62787 -25.41377,-3.3277 l -13,-1.27243 -48.5,0.0427 -48.5,0.0427 -15,1.24248 c -25.21899,2.08894 -38.85201,4.72304 -50.12504,9.68491 l -5.12504,2.2558 -4.28126,3.8603 -4.28126,3.86029 -1.82174,4 -1.82174,4 -0.022,17.08333 -0.022,17.08334 0.67037,0.67037 0.67037,0.67036 130.57963,-0.2537 130.57971,-0.25371 0.3031,-17 z" />
  </g>
</svg>
