<svg id="Layer_1" data-name="Layer 1" xmlns="http://www.w3.org/2000/svg" viewBox="0 0 500 500"><defs><style>.cls-1{fill:#fff;}.cls-2{fill:#ff6656;}</style></defs><title>Tools</title><path class="cls-1" d="M213.35,242.76c-7.37,7.26-14.13,14.09-21.14,20.64a5.54,5.54,0,0,1-4.89.74c-7.46-3.22-14.81-6.72-22.08-10.34-2.38-1.18-3.85-1.14-5.86.86-9.09,9-18.53,17.74-27.61,26.8q-55,54.84-109.84,109.83c-12.47,12.5-13.56,29.17-3,43.39a215.5,215.5,0,0,0,44,44.15C77.68,490,94.26,488.88,107.43,476c9.87-9.65,20-19.08,29.73-28.82Q191,393.55,244.66,339.83c2.07-2.06,1.89-3.56.75-5.87-3.59-7.29-7.06-14.65-10.31-22.09-0.55-1.25-.39-3.65.47-4.55,6.69-7.1,13.63-14,21.37-21.8l20.51,21.76c6.65-6.77,12.69-13.15,19-19.24,2.19-2.11,2.17-3.75,1-6.3-4.18-9-8-18.16-12.23-27.12-1.68-3.54-1.45-5.77,1.52-8.7q65.13-64.3,129.88-129c8.9-9,18.23-16.45,30.31-20.35a9.25,9.25,0,0,0,4.67-3.19c12.24-18.42,24.32-37,36.19-55.08L461.92,12.56c-0.78.48-1.9,1.14-3,1.85C442.87,24.92,427,35.8,410.62,45.75c-5.18,3.14-7.88,7.06-10.11,12.19s-4.14,11-7.93,14.84c-46.51,47-93.35,93.63-140,140.44-2.14,2.15-3.73,2.71-6.64,1.34-9.55-4.52-19.24-8.73-29-12.9-1.23-.53-3.49-0.72-4.25,0-6.91,6.59-13.59,13.43-20.77,20.61Zm31.44-50.4,1.44-1.64a48.14,48.14,0,0,1-5.71-4.25q-33.56-33.42-67-67c-8.28-8.29-13.93-18.14-15.48-29.77-1-7.19-.76-14.58-0.64-21.87,0.35-20.54-7.72-36.54-26.1-46C107.45,9.55,82.06,7.11,56,13.25c-2.41.57-5.92,3.11-6.09,5-0.21,2.45,2.22,5.27,3.88,7.67,0.76,1.1,2.4,1.62,3.66,2.34C67.14,33.85,76.93,39.34,86.59,45c13.8,8.14,17.58,22,9.85,36-3.79,6.82-7.74,13.55-11.64,20.31C76.38,116,64.53,119.17,49.92,110.8c-11.71-6.71-23.37-13.5-35.17-20-1.59-.88-4.36-1.3-5.71-0.49s-2.35,3.56-2.1,5.25a70.22,70.22,0,0,0,3.39,14.65C18,130.57,31.68,146.58,49.2,159.1c5.08,3.63,11.69,5.9,17.92,7,7.61,1.3,15.55.76,23.34,0.85a55.16,55.16,0,0,1,38.78,15.75c11.62,11.1,23.09,22.36,34.64,33.54,1,1,2.11,1.86,3.29,2.89,13.14-13.14,26.1-25.94,38.85-39,2.52-2.57,4.4-3.23,7.85-1.58C224.06,183.42,234.47,187.79,244.79,192.36Zm35,140c16,16,31.41,31.38,46.89,46.73,8.35,8.28,14,18.09,15.66,29.68,1,6.85.5,13.94,0.26,20.92-0.78,23,10.51,41.16,31.64,50.16,16.8,7.16,34.47,9.37,52.54,8.14A107.3,107.3,0,0,0,446,484.56c5.15-1.31,6.23-5.66,2.77-9.7a20.84,20.84,0,0,0-5.31-4.18c-10-5.83-20.06-11.43-30-17.35-3.43-2-7.16-4.24-9.5-7.32-6.49-8.53-7.23-18-1.87-27.43,4.22-7.44,9.06-14.53,13.39-21.92,8.29-14.15,20.29-17.33,34.64-9,11.55,6.66,23.09,13.34,34.76,19.79,1.74,1,4.91,1.67,6.08.76,1.48-1.14,2.1-4,2.16-6.22a24.86,24.86,0,0,0-1.39-7.63C484.46,370.21,469.18,352,448.85,338a36.63,36.63,0,0,0-15.38-5.6c-7.84-1.08-15.89-.94-23.84-0.85-16,.18-29.52-5.4-40.78-16.69q-29-29-58-58c-1-1-2.14-2-3.21-3a214.66,214.66,0,0,0,8.92,22.45c1.9,4.31,5.79,9,5,12.85-0.78,4-5.9,7.3-9.3,10.73C301.65,310.59,290.94,321.24,279.84,332.32Z"/><path class="cls-2" d="M213.35,242.76l-21.41-20.49c7.17-7.19,13.86-14,20.77-20.61,0.76-.72,3-0.53,4.25,0,9.71,4.17,19.4,8.38,29,12.9,2.91,1.38,4.5.81,6.64-1.34,46.68-46.81,93.52-93.46,140-140.44,3.79-3.83,5.69-9.69,7.93-14.84s4.93-9,10.11-12.19c16.41-10,32.25-20.83,48.31-31.35,1.08-.71,2.2-1.36,3-1.85l25.87,25.75C475.91,56.43,463.84,75,451.6,93.39a9.25,9.25,0,0,1-4.67,3.19c-12.08,3.9-21.41,11.39-30.31,20.35q-64.54,64.89-129.88,129c-3,2.93-3.2,5.16-1.52,8.7,4.26,9,8.05,18.13,12.23,27.12,1.18,2.55,1.2,4.19-1,6.3-6.32,6.09-12.37,12.47-19,19.24l-20.51-21.76c-7.74,7.83-14.68,14.7-21.37,21.8-0.85.91-1,3.3-.47,4.55,3.25,7.45,6.72,14.8,10.31,22.09,1.14,2.31,1.31,3.81-.75,5.87q-53.82,53.59-107.49,107.34c-9.77,9.74-19.87,19.17-29.73,28.82-13.17,12.89-29.75,14-44.58,2.83a215.5,215.5,0,0,1-44-44.15c-10.54-14.22-9.45-30.89,3-43.39q54.84-55,109.84-109.83c9.08-9.06,18.52-17.75,27.61-26.8,2-2,3.48-2,5.86-.86,7.28,3.62,14.63,7.11,22.08,10.34a5.54,5.54,0,0,0,4.89-.74C199.22,256.84,206,250,213.35,242.76Z"/><path class="cls-2" d="M244.79,192.36c-10.32-4.57-20.74-8.94-30.92-13.8-3.45-1.65-5.33-1-7.85,1.58-12.75,13-25.71,25.82-38.85,39-1.18-1-2.28-1.91-3.29-2.89-11.55-11.18-23-22.43-34.64-33.54a55.16,55.16,0,0,0-38.78-15.75c-7.8-.09-15.73.45-23.34-0.85-6.22-1.06-12.84-3.33-17.92-7C31.68,146.58,18,130.57,10.33,110.16A70.22,70.22,0,0,1,6.94,95.52c-0.25-1.69.77-4.45,2.1-5.25s4.12-.4,5.71.49c11.8,6.54,23.46,13.33,35.17,20,14.61,8.37,26.46,5.16,34.88-9.46C88.69,94.57,92.65,87.84,96.44,81c7.74-13.94,4-27.84-9.85-36-9.66-5.7-19.45-11.19-29.17-16.78-1.27-.73-2.9-1.24-3.66-2.34-1.67-2.4-4.1-5.23-3.88-7.67,0.16-1.88,3.67-4.42,6.09-5,26.11-6.14,51.49-3.7,75.37,8.62,18.38,9.48,26.45,25.49,26.1,46-0.12,7.29-.32,14.67.64,21.87,1.55,11.63,7.2,21.48,15.48,29.77q33.46,33.51,67,67a48.14,48.14,0,0,0,5.71,4.25Z"/><path class="cls-2" d="M279.84,332.32c11.1-11.09,21.82-21.73,32.45-32.45,3.4-3.43,8.52-6.7,9.3-10.73,0.74-3.81-3.15-8.54-5-12.85a214.66,214.66,0,0,1-8.92-22.45c1.07,1,2.17,2,3.21,3q29,29,58,58c11.27,11.29,24.78,16.87,40.78,16.69,8-.09,16-0.23,23.84.85a36.63,36.63,0,0,1,15.38,5.6c20.34,14,35.61,32.2,42.86,56.31A24.86,24.86,0,0,1,493.1,402c-0.06,2.17-.68,5.07-2.16,6.22-1.17.9-4.34,0.2-6.08-.76-11.67-6.45-23.21-13.13-34.76-19.79-14.35-8.28-26.35-5.1-34.64,9-4.33,7.39-9.17,14.47-13.39,21.92-5.35,9.43-4.61,18.9,1.87,27.43,2.34,3.08,6.07,5.28,9.5,7.32,9.91,5.92,20,11.52,30,17.35a20.84,20.84,0,0,1,5.31,4.18c3.47,4,2.38,8.39-2.77,9.7A107.3,107.3,0,0,1,426.82,488c-18.07,1.22-35.74-1-52.54-8.14-21.13-9-32.42-27.17-31.64-50.16,0.24-7,.71-14.06-0.26-20.92-1.63-11.59-7.31-21.4-15.66-29.68C311.24,363.7,295.83,348.27,279.84,332.32Z"/></svg>